<mxfile host="www.draw.io" modified="2023-04-10T19:42:59.395Z" agent="Mozilla/5.0 (Windows NT 10.0; Win64; x64) AppleWebKit/537.36 (KHTML, like Gecko) Chrome/112.0.0.0 Safari/537.36 Edg/112.0.1722.34" etag="UQjll6avzCRyJZr3hHci" version="21.1.5" type="device">
  <diagram name="Page-1" id="b5b7bab2-c9e2-2cf4-8b2a-24fd1a2a6d21">
    <mxGraphModel dx="967" dy="1232" grid="1" gridSize="10" guides="1" tooltips="1" connect="1" arrows="1" fold="1" page="1" pageScale="1" pageWidth="827" pageHeight="1169" background="none" math="0" shadow="0">
      <root>
        <mxCell id="0" />
        <mxCell id="1" parent="0" />
        <mxCell id="w0ylsu2kDL8Zp35_JuIY-34" value="" style="group" vertex="1" connectable="0" parent="1">
          <mxGeometry x="860" y="600" width="230" height="480" as="geometry" />
        </mxCell>
        <mxCell id="w0ylsu2kDL8Zp35_JuIY-35" value="" style="group" vertex="1" connectable="0" parent="w0ylsu2kDL8Zp35_JuIY-34">
          <mxGeometry width="230" height="480" as="geometry" />
        </mxCell>
        <mxCell id="w0ylsu2kDL8Zp35_JuIY-36" value="&lt;h1&gt;&lt;br&gt;&lt;/h1&gt;" style="shape=folder;fontStyle=1;spacingTop=10;tabWidth=123;tabHeight=24;tabPosition=left;html=1;rounded=0;shadow=0;comic=0;labelBackgroundColor=none;strokeWidth=1;fontFamily=Verdana;fontSize=10;align=left;" vertex="1" parent="w0ylsu2kDL8Zp35_JuIY-35">
          <mxGeometry width="230" height="480" as="geometry" />
        </mxCell>
        <mxCell id="w0ylsu2kDL8Zp35_JuIY-38" value="Messages" style="shape=folder;fontStyle=1;spacingTop=10;tabWidth=50;tabHeight=17;tabPosition=left;html=1;rounded=0;shadow=0;comic=0;labelBackgroundColor=none;strokeWidth=1;fontFamily=Verdana;fontSize=10;align=center;" vertex="1" parent="w0ylsu2kDL8Zp35_JuIY-35">
          <mxGeometry x="59" y="265" width="112" height="70" as="geometry" />
        </mxCell>
        <mxCell id="w0ylsu2kDL8Zp35_JuIY-39" value="Tracking" style="shape=folder;fontStyle=1;spacingTop=10;tabWidth=50;tabHeight=17;tabPosition=left;html=1;rounded=0;shadow=0;comic=0;labelBackgroundColor=none;strokeWidth=1;fontFamily=Verdana;fontSize=10;align=center;" vertex="1" parent="w0ylsu2kDL8Zp35_JuIY-35">
          <mxGeometry x="50" y="110" width="112" height="70" as="geometry" />
        </mxCell>
        <mxCell id="w0ylsu2kDL8Zp35_JuIY-40" value="&lt;b&gt;&lt;font style=&quot;font-size: 21px;&quot;&gt;Driver-App&lt;/font&gt;&lt;/b&gt;" style="text;html=1;strokeColor=none;fillColor=none;align=center;verticalAlign=middle;whiteSpace=wrap;rounded=0;" vertex="1" parent="w0ylsu2kDL8Zp35_JuIY-35">
          <mxGeometry x="10" y="50" width="210" height="30" as="geometry" />
        </mxCell>
        <mxCell id="w0ylsu2kDL8Zp35_JuIY-41" value="" style="shape=folder;fontStyle=1;spacingTop=10;tabWidth=123;tabHeight=24;tabPosition=left;html=1;rounded=0;shadow=0;comic=0;labelBackgroundColor=none;strokeColor=#000000;strokeWidth=1;fillColor=#ffffff;fontFamily=Verdana;fontSize=10;fontColor=#000000;align=center;" vertex="1" parent="1">
          <mxGeometry x="861" y="40" width="710" height="490" as="geometry" />
        </mxCell>
        <mxCell id="w0ylsu2kDL8Zp35_JuIY-42" style="edgeStyle=elbowEdgeStyle;rounded=0;html=1;entryX=0.559;entryY=0.251;entryPerimeter=0;dashed=1;labelBackgroundColor=none;startFill=0;endArrow=open;endFill=0;endSize=10;fontFamily=Verdana;fontSize=10;" edge="1" parent="1" source="w0ylsu2kDL8Zp35_JuIY-45" target="w0ylsu2kDL8Zp35_JuIY-47">
          <mxGeometry relative="1" as="geometry" />
        </mxCell>
        <mxCell id="w0ylsu2kDL8Zp35_JuIY-43" style="edgeStyle=none;rounded=0;html=1;dashed=1;labelBackgroundColor=none;startFill=0;endArrow=open;endFill=0;endSize=10;fontFamily=Verdana;fontSize=10;entryX=0;entryY=0;entryPerimeter=0;exitX=0;exitY=0;exitDx=0;exitDy=70;exitPerimeter=0;entryDx=50;entryDy=17;" edge="1" parent="1" source="w0ylsu2kDL8Zp35_JuIY-45" target="w0ylsu2kDL8Zp35_JuIY-60">
          <mxGeometry relative="1" as="geometry">
            <mxPoint x="1484.2039999999997" y="398.77" as="targetPoint" />
          </mxGeometry>
        </mxCell>
        <mxCell id="w0ylsu2kDL8Zp35_JuIY-44" style="edgeStyle=none;rounded=0;html=1;dashed=1;labelBackgroundColor=none;startFill=0;endArrow=open;endFill=0;endSize=10;fontFamily=Verdana;fontSize=10;entryX=0;entryY=0;entryPerimeter=0;entryDx=25;entryDy=0;" edge="1" parent="1" source="w0ylsu2kDL8Zp35_JuIY-45" target="w0ylsu2kDL8Zp35_JuIY-46">
          <mxGeometry relative="1" as="geometry">
            <mxPoint x="1281.9959999999999" y="401.0799999999999" as="targetPoint" />
          </mxGeometry>
        </mxCell>
        <mxCell id="w0ylsu2kDL8Zp35_JuIY-45" value="Accounts" style="shape=folder;fontStyle=1;spacingTop=10;tabWidth=50;tabHeight=17;tabPosition=left;html=1;rounded=0;shadow=0;comic=0;labelBackgroundColor=none;strokeColor=#000000;strokeWidth=1;fillColor=#ffffff;fontFamily=Verdana;fontSize=10;fontColor=#000000;align=center;" vertex="1" parent="1">
          <mxGeometry x="1297" y="150" width="112" height="70" as="geometry" />
        </mxCell>
        <mxCell id="w0ylsu2kDL8Zp35_JuIY-46" value="Admin" style="shape=folder;fontStyle=1;spacingTop=10;tabWidth=50;tabHeight=17;tabPosition=left;html=1;rounded=0;shadow=0;comic=0;labelBackgroundColor=none;strokeColor=#000000;strokeWidth=1;fillColor=#ffffff;fontFamily=Verdana;fontSize=10;fontColor=#000000;align=center;" vertex="1" parent="1">
          <mxGeometry x="1449" y="260" width="112" height="70" as="geometry" />
        </mxCell>
        <mxCell id="w0ylsu2kDL8Zp35_JuIY-47" value="User" style="shape=folder;fontStyle=1;spacingTop=10;tabWidth=50;tabHeight=17;tabPosition=left;html=1;rounded=0;shadow=0;comic=0;labelBackgroundColor=none;strokeColor=#000000;strokeWidth=1;fillColor=#ffffff;fontFamily=Verdana;fontSize=10;fontColor=#000000;align=center;" vertex="1" parent="1">
          <mxGeometry x="1297" y="260" width="112" height="70" as="geometry" />
        </mxCell>
        <mxCell id="w0ylsu2kDL8Zp35_JuIY-48" value="" style="group" vertex="1" connectable="0" parent="1">
          <mxGeometry x="1390" y="560" width="230" height="480" as="geometry" />
        </mxCell>
        <mxCell id="w0ylsu2kDL8Zp35_JuIY-49" value="" style="group" vertex="1" connectable="0" parent="w0ylsu2kDL8Zp35_JuIY-48">
          <mxGeometry width="230" height="480" as="geometry" />
        </mxCell>
        <mxCell id="w0ylsu2kDL8Zp35_JuIY-50" value="&lt;h1&gt;&lt;br&gt;&lt;/h1&gt;" style="shape=folder;fontStyle=1;spacingTop=10;tabWidth=123;tabHeight=24;tabPosition=left;html=1;rounded=0;shadow=0;comic=0;labelBackgroundColor=none;strokeWidth=1;fontFamily=Verdana;fontSize=10;align=left;" vertex="1" parent="w0ylsu2kDL8Zp35_JuIY-49">
          <mxGeometry width="230" height="480" as="geometry" />
        </mxCell>
        <mxCell id="w0ylsu2kDL8Zp35_JuIY-51" value="Live Location" style="shape=folder;fontStyle=1;spacingTop=10;tabWidth=50;tabHeight=17;tabPosition=left;html=1;rounded=0;shadow=0;comic=0;labelBackgroundColor=none;strokeWidth=1;fontFamily=Verdana;fontSize=10;align=center;direction=east;" vertex="1" parent="w0ylsu2kDL8Zp35_JuIY-49">
          <mxGeometry x="50" y="240" width="112" height="70" as="geometry" />
        </mxCell>
        <mxCell id="w0ylsu2kDL8Zp35_JuIY-52" value="Messages" style="shape=folder;fontStyle=1;spacingTop=10;tabWidth=50;tabHeight=17;tabPosition=left;html=1;rounded=0;shadow=0;comic=0;labelBackgroundColor=none;strokeWidth=1;fontFamily=Verdana;fontSize=10;align=center;" vertex="1" parent="w0ylsu2kDL8Zp35_JuIY-49">
          <mxGeometry x="50" y="110" width="112" height="70" as="geometry" />
        </mxCell>
        <mxCell id="w0ylsu2kDL8Zp35_JuIY-53" value="Routes" style="shape=folder;fontStyle=1;spacingTop=10;tabWidth=50;tabHeight=17;tabPosition=left;html=1;rounded=0;shadow=0;comic=0;labelBackgroundColor=none;strokeWidth=1;fontFamily=Verdana;fontSize=10;align=center;" vertex="1" parent="w0ylsu2kDL8Zp35_JuIY-49">
          <mxGeometry x="50" y="380" width="112" height="70" as="geometry" />
        </mxCell>
        <mxCell id="w0ylsu2kDL8Zp35_JuIY-54" value="&lt;b&gt;&lt;font style=&quot;font-size: 21px;&quot;&gt;User-APP&lt;/font&gt;&lt;/b&gt;" style="text;html=1;strokeColor=none;fillColor=none;align=center;verticalAlign=middle;whiteSpace=wrap;rounded=0;" vertex="1" parent="w0ylsu2kDL8Zp35_JuIY-49">
          <mxGeometry x="10" y="50" width="210" height="30" as="geometry" />
        </mxCell>
        <mxCell id="w0ylsu2kDL8Zp35_JuIY-55" style="rounded=0;html=1;entryX=0.559;entryY=0.251;entryPerimeter=0;dashed=1;labelBackgroundColor=none;startFill=0;endArrow=open;endFill=0;endSize=10;fontFamily=Verdana;fontSize=10;exitX=0.25;exitY=1;exitDx=0;exitDy=0;exitPerimeter=0;" edge="1" parent="1" source="w0ylsu2kDL8Zp35_JuIY-57" target="w0ylsu2kDL8Zp35_JuIY-58">
          <mxGeometry relative="1" as="geometry" />
        </mxCell>
        <mxCell id="w0ylsu2kDL8Zp35_JuIY-56" style="rounded=0;html=1;dashed=1;labelBackgroundColor=none;startFill=0;endArrow=open;endFill=0;endSize=10;fontFamily=Verdana;fontSize=10;entryX=0;entryY=0;entryPerimeter=0;entryDx=81;entryDy=17;" edge="1" parent="1" source="w0ylsu2kDL8Zp35_JuIY-57" target="w0ylsu2kDL8Zp35_JuIY-59">
          <mxGeometry relative="1" as="geometry" />
        </mxCell>
        <mxCell id="w0ylsu2kDL8Zp35_JuIY-57" value="Tracks" style="shape=folder;fontStyle=1;spacingTop=10;tabWidth=50;tabHeight=17;tabPosition=left;html=1;rounded=0;shadow=0;comic=0;labelBackgroundColor=none;strokeColor=#000000;strokeWidth=1;fillColor=#ffffff;fontFamily=Verdana;fontSize=10;fontColor=#000000;align=center;" vertex="1" parent="1">
          <mxGeometry x="1024" y="250" width="112" height="70" as="geometry" />
        </mxCell>
        <mxCell id="w0ylsu2kDL8Zp35_JuIY-58" value="Stop" style="shape=folder;fontStyle=1;spacingTop=10;tabWidth=50;tabHeight=17;tabPosition=left;html=1;rounded=0;shadow=0;comic=0;labelBackgroundColor=none;strokeColor=#000000;strokeWidth=1;fillColor=#ffffff;fontFamily=Verdana;fontSize=10;fontColor=#000000;align=center;" vertex="1" parent="1">
          <mxGeometry x="880" y="350" width="112" height="70" as="geometry" />
        </mxCell>
        <mxCell id="w0ylsu2kDL8Zp35_JuIY-59" value="Path" style="shape=folder;fontStyle=1;spacingTop=10;tabWidth=50;tabHeight=17;tabPosition=left;html=1;rounded=0;shadow=0;comic=0;labelBackgroundColor=none;strokeColor=#000000;strokeWidth=1;fillColor=#ffffff;fontFamily=Verdana;fontSize=10;fontColor=#000000;align=center;" vertex="1" parent="1">
          <mxGeometry x="1014" y="350" width="112" height="70" as="geometry" />
        </mxCell>
        <mxCell id="w0ylsu2kDL8Zp35_JuIY-60" value="Driver" style="shape=folder;fontStyle=1;spacingTop=10;tabWidth=50;tabHeight=17;tabPosition=left;html=1;rounded=0;shadow=0;comic=0;labelBackgroundColor=none;strokeColor=#000000;strokeWidth=1;fillColor=#ffffff;fontFamily=Verdana;fontSize=10;fontColor=#000000;align=center;" vertex="1" parent="1">
          <mxGeometry x="1160" y="250" width="112" height="70" as="geometry" />
        </mxCell>
        <mxCell id="w0ylsu2kDL8Zp35_JuIY-61" value="Buses" style="shape=folder;fontStyle=1;spacingTop=10;tabWidth=50;tabHeight=17;tabPosition=left;html=1;rounded=0;shadow=0;comic=0;labelBackgroundColor=none;strokeColor=#000000;strokeWidth=1;fillColor=#ffffff;fontFamily=Verdana;fontSize=10;fontColor=#000000;align=center;" vertex="1" parent="1">
          <mxGeometry x="880" y="250" width="112" height="70" as="geometry" />
        </mxCell>
        <mxCell id="w0ylsu2kDL8Zp35_JuIY-62" value="Message" style="shape=folder;fontStyle=1;spacingTop=10;tabWidth=50;tabHeight=17;tabPosition=left;html=1;rounded=0;shadow=0;comic=0;labelBackgroundColor=none;strokeColor=#000000;strokeWidth=1;fillColor=#ffffff;fontFamily=Verdana;fontSize=10;fontColor=#000000;align=center;" vertex="1" parent="1">
          <mxGeometry x="1300" y="400" width="112" height="70" as="geometry" />
        </mxCell>
        <mxCell id="w0ylsu2kDL8Zp35_JuIY-63" style="edgeStyle=none;rounded=0;html=1;dashed=1;labelBackgroundColor=none;startFill=0;endArrow=open;endFill=0;endSize=10;fontFamily=Verdana;fontSize=10;entryX=0;entryY=0;entryPerimeter=0;entryDx=112;entryDy=43.5;exitX=0;exitY=0;exitDx=0;exitDy=43.5;exitPerimeter=0;" edge="1" parent="1" source="w0ylsu2kDL8Zp35_JuIY-46" target="w0ylsu2kDL8Zp35_JuIY-62">
          <mxGeometry relative="1" as="geometry">
            <mxPoint x="1098" y="454.5" as="sourcePoint" />
            <mxPoint x="1030" y="515.5" as="targetPoint" />
          </mxGeometry>
        </mxCell>
        <mxCell id="w0ylsu2kDL8Zp35_JuIY-64" value="Route" style="shape=folder;fontStyle=1;spacingTop=10;tabWidth=50;tabHeight=17;tabPosition=left;html=1;rounded=0;shadow=0;comic=0;labelBackgroundColor=none;strokeColor=#000000;strokeWidth=1;fillColor=#ffffff;fontFamily=Verdana;fontSize=10;fontColor=#000000;align=center;" vertex="1" parent="1">
          <mxGeometry x="890" y="100" width="112" height="70" as="geometry" />
        </mxCell>
        <mxCell id="w0ylsu2kDL8Zp35_JuIY-65" style="rounded=0;html=1;entryX=0;entryY=0;entryPerimeter=0;dashed=1;labelBackgroundColor=none;startFill=0;endArrow=open;endFill=0;endSize=10;fontFamily=Verdana;fontSize=10;exitX=0.25;exitY=1;exitDx=0;exitDy=0;exitPerimeter=0;entryDx=25;entryDy=0;" edge="1" parent="1" source="w0ylsu2kDL8Zp35_JuIY-64" target="w0ylsu2kDL8Zp35_JuIY-61">
          <mxGeometry relative="1" as="geometry">
            <mxPoint x="1138" y="330" as="sourcePoint" />
            <mxPoint x="1117" y="378" as="targetPoint" />
          </mxGeometry>
        </mxCell>
        <mxCell id="w0ylsu2kDL8Zp35_JuIY-66" style="rounded=0;html=1;entryX=0;entryY=0;entryPerimeter=0;dashed=1;labelBackgroundColor=none;startFill=0;endArrow=open;endFill=0;endSize=10;fontFamily=Verdana;fontSize=10;exitX=0.5;exitY=1;exitDx=0;exitDy=0;exitPerimeter=0;entryDx=25;entryDy=0;" edge="1" parent="1" source="w0ylsu2kDL8Zp35_JuIY-64" target="w0ylsu2kDL8Zp35_JuIY-57">
          <mxGeometry relative="1" as="geometry">
            <mxPoint x="928" y="180" as="sourcePoint" />
            <mxPoint x="915" y="260" as="targetPoint" />
          </mxGeometry>
        </mxCell>
        <mxCell id="w0ylsu2kDL8Zp35_JuIY-67" style="rounded=0;html=1;entryX=0;entryY=0;entryPerimeter=0;dashed=1;labelBackgroundColor=none;startFill=0;endArrow=open;endFill=0;endSize=10;fontFamily=Verdana;fontSize=10;exitX=0;exitY=0;exitDx=112;exitDy=70;exitPerimeter=0;entryDx=0;entryDy=0;" edge="1" parent="1" source="w0ylsu2kDL8Zp35_JuIY-64" target="w0ylsu2kDL8Zp35_JuIY-60">
          <mxGeometry relative="1" as="geometry">
            <mxPoint x="956" y="180" as="sourcePoint" />
            <mxPoint x="1135" y="260" as="targetPoint" />
          </mxGeometry>
        </mxCell>
        <mxCell id="w0ylsu2kDL8Zp35_JuIY-69" value="&lt;b&gt;&lt;font style=&quot;font-size: 21px;&quot;&gt;Admin-Pannel&lt;/font&gt;&lt;/b&gt;" style="text;html=1;strokeColor=none;fillColor=none;align=center;verticalAlign=middle;whiteSpace=wrap;rounded=0;" vertex="1" parent="1">
          <mxGeometry x="1324" y="100" width="210" height="30" as="geometry" />
        </mxCell>
        <mxCell id="w0ylsu2kDL8Zp35_JuIY-70" value="" style="group" vertex="1" connectable="0" parent="1">
          <mxGeometry x="870" y="610" width="230" height="480" as="geometry" />
        </mxCell>
        <mxCell id="w0ylsu2kDL8Zp35_JuIY-80" value="&lt;h1&gt;&lt;br&gt;&lt;/h1&gt;" style="shape=folder;fontStyle=1;spacingTop=10;tabWidth=123;tabHeight=24;tabPosition=left;html=1;rounded=0;shadow=0;comic=0;labelBackgroundColor=none;strokeWidth=1;fontFamily=Verdana;fontSize=10;align=left;" vertex="1" parent="1">
          <mxGeometry x="1126" y="660" width="230" height="270" as="geometry" />
        </mxCell>
        <mxCell id="w0ylsu2kDL8Zp35_JuIY-81" value="&lt;b&gt;&lt;font style=&quot;font-size: 21px;&quot;&gt;Live Server&lt;/font&gt;&lt;/b&gt;" style="text;html=1;strokeColor=none;fillColor=none;align=center;verticalAlign=middle;whiteSpace=wrap;rounded=0;" vertex="1" parent="1">
          <mxGeometry x="1136" y="700" width="210" height="30" as="geometry" />
        </mxCell>
        <mxCell id="w0ylsu2kDL8Zp35_JuIY-82" value="Live Tracking" style="shape=folder;fontStyle=1;spacingTop=10;tabWidth=50;tabHeight=17;tabPosition=left;html=1;rounded=0;shadow=0;comic=0;labelBackgroundColor=none;strokeColor=#000000;strokeWidth=1;fillColor=#ffffff;fontFamily=Verdana;fontSize=10;fontColor=#000000;align=center;" vertex="1" parent="1">
          <mxGeometry x="1185" y="760" width="112" height="70" as="geometry" />
        </mxCell>
        <mxCell id="w0ylsu2kDL8Zp35_JuIY-83" style="rounded=0;html=1;dashed=1;labelBackgroundColor=none;startFill=0;endArrow=open;endFill=0;endSize=10;fontFamily=Verdana;fontSize=10;entryX=0;entryY=0;entryPerimeter=0;entryDx=111.99999999999999;entryDy=56.75;exitX=0;exitY=0;exitDx=0;exitDy=56.75;exitPerimeter=0;" edge="1" parent="1" source="w0ylsu2kDL8Zp35_JuIY-82" target="w0ylsu2kDL8Zp35_JuIY-39">
          <mxGeometry relative="1" as="geometry">
            <mxPoint x="1180" y="860" as="sourcePoint" />
            <mxPoint x="1002" y="840" as="targetPoint" />
          </mxGeometry>
        </mxCell>
        <mxCell id="w0ylsu2kDL8Zp35_JuIY-85" value="Live Location" style="shape=folder;fontStyle=1;spacingTop=10;tabWidth=50;tabHeight=17;tabPosition=left;html=1;rounded=0;shadow=0;comic=0;labelBackgroundColor=none;strokeColor=#000000;strokeWidth=1;fillColor=#ffffff;fontFamily=Verdana;fontSize=10;fontColor=#000000;align=center;" vertex="1" parent="1">
          <mxGeometry x="1160" y="420" width="112" height="70" as="geometry" />
        </mxCell>
        <mxCell id="w0ylsu2kDL8Zp35_JuIY-86" style="rounded=0;html=1;dashed=1;labelBackgroundColor=none;startFill=0;endArrow=open;endFill=0;endSize=10;fontFamily=Verdana;fontSize=10;entryX=0;entryY=0;entryPerimeter=0;entryDx=25;entryDy=0;exitX=0.5;exitY=1;exitDx=0;exitDy=0;exitPerimeter=0;" edge="1" parent="1" source="w0ylsu2kDL8Zp35_JuIY-85" target="w0ylsu2kDL8Zp35_JuIY-82">
          <mxGeometry relative="1" as="geometry">
            <mxPoint x="1185" y="600" as="sourcePoint" />
            <mxPoint x="1022" y="550" as="targetPoint" />
          </mxGeometry>
        </mxCell>
        <mxCell id="w0ylsu2kDL8Zp35_JuIY-88" style="rounded=0;html=1;dashed=1;labelBackgroundColor=none;startFill=0;endArrow=open;endFill=0;endSize=10;fontFamily=Verdana;fontSize=10;entryX=0;entryY=0;entryPerimeter=0;entryDx=112;entryDy=30.25;" edge="1" parent="1" source="w0ylsu2kDL8Zp35_JuIY-51" target="w0ylsu2kDL8Zp35_JuIY-82">
          <mxGeometry relative="1" as="geometry">
            <mxPoint x="936" y="520" as="sourcePoint" />
            <mxPoint x="1220" y="770" as="targetPoint" />
          </mxGeometry>
        </mxCell>
        <mxCell id="w0ylsu2kDL8Zp35_JuIY-89" style="edgeStyle=none;rounded=0;html=1;dashed=1;labelBackgroundColor=none;startFill=0;endArrow=open;endFill=0;endSize=10;fontFamily=Verdana;fontSize=10;entryX=0.5;entryY=1;entryPerimeter=0;entryDx=0;entryDy=0;exitX=0;exitY=0;exitDx=0;exitDy=43.5;exitPerimeter=0;" edge="1" parent="1" source="w0ylsu2kDL8Zp35_JuIY-52" target="w0ylsu2kDL8Zp35_JuIY-62">
          <mxGeometry relative="1" as="geometry">
            <mxPoint x="1459" y="314" as="sourcePoint" />
            <mxPoint x="1422" y="454" as="targetPoint" />
          </mxGeometry>
        </mxCell>
      </root>
    </mxGraphModel>
  </diagram>
</mxfile>
